<svg xmlns="http://www.w3.org/2000/svg" width="800" height="450" viewBox="0 0 800 450">
  <defs>
    <linearGradient id="bg" x1="0%" y1="0%" x2="100%" y2="100%">
      <stop offset="0%" style="stop-color:#0a0a0a"/>
      <stop offset="100%" style="stop-color:#18181b"/>
    </linearGradient>
    <linearGradient id="red" x1="0%" y1="0%" x2="100%" y2="0%">
      <stop offset="0%" style="stop-color:#ef4444"/>
      <stop offset="100%" style="stop-color:#f87171"/>
    </linearGradient>
  </defs>
  <rect width="800" height="450" fill="url(#bg)"/>
  <rect x="0" y="0" width="800" height="3" fill="url(#red)"/>
  <!-- Grid -->
  <g opacity="0.03" stroke="#ef4444" stroke-width="0.5" fill="none">
    <line x1="0" y1="90" x2="800" y2="90"/>
    <line x1="0" y1="180" x2="800" y2="180"/>
    <line x1="0" y1="270" x2="800" y2="270"/>
    <line x1="0" y1="360" x2="800" y2="360"/>
    <line x1="160" y1="0" x2="160" y2="450"/>
    <line x1="320" y1="0" x2="320" y2="450"/>
    <line x1="480" y1="0" x2="480" y2="450"/>
    <line x1="640" y1="0" x2="640" y2="450"/>
  </g>
  <!-- Shield icon with lock -->
  <g transform="translate(400, 140)" text-anchor="middle">
    <path d="M0,-40 L35,-22 L35,12 C35,32 17,48 0,55 C-17,48 -35,32 -35,12 L-35,-22 Z" fill="none" stroke="#ef4444" stroke-width="2" opacity="0.5"/>
    <path d="M0,-28 L25,-16 L25,9 C25,24 12,34 0,39 C-12,34 -25,24 -25,9 L-25,-16 Z" fill="#ef4444" opacity="0.08"/>
    <!-- Lock icon inside shield -->
    <rect x="-10" y="0" width="20" height="16" rx="2" fill="none" stroke="#ef4444" stroke-width="1.5" opacity="0.7"/>
    <path d="M-6,0 L-6,-6 C-6,-12 6,-12 6,-6 L6,0" fill="none" stroke="#ef4444" stroke-width="1.5" opacity="0.7"/>
    <circle cx="0" cy="8" r="2.5" fill="#ef4444" opacity="0.8"/>
  </g>
  <!-- Title -->
  <text x="400" y="220" text-anchor="middle" font-family="Tahoma, Geneva, sans-serif" font-size="28" font-weight="bold" fill="#fafafa">Phishing Detection</text>
  <text x="400" y="248" text-anchor="middle" font-family="Tahoma, Geneva, sans-serif" font-size="13" fill="#a1a1aa">&amp; Automated Takedowns</text>
  <text x="400" y="272" text-anchor="middle" font-family="Tahoma, Geneva, sans-serif" font-size="11" fill="#71717a">Product Research</text>
  <!-- Stats row -->
  <g transform="translate(400, 325)" text-anchor="middle">
    <g transform="translate(-120, 0)">
      <rect x="-50" y="-20" width="100" height="40" rx="8" fill="#1c1c1f" stroke="#27272a" stroke-width="1"/>
      <text x="0" y="-3" text-anchor="middle" font-family="monospace" font-size="16" font-weight="bold" fill="#ef4444">URL</text>
      <text x="0" y="13" text-anchor="middle" font-family="sans-serif" font-size="9" fill="#71717a">Analysis</text>
    </g>
    <g transform="translate(0, 0)">
      <rect x="-50" y="-20" width="100" height="40" rx="8" fill="#1c1c1f" stroke="#27272a" stroke-width="1"/>
      <text x="0" y="-3" text-anchor="middle" font-family="monospace" font-size="16" font-weight="bold" fill="#ef4444">AI</text>
      <text x="0" y="13" text-anchor="middle" font-family="sans-serif" font-size="9" fill="#71717a">Detection</text>
    </g>
    <g transform="translate(120, 0)">
      <rect x="-50" y="-20" width="100" height="40" rx="8" fill="#1c1c1f" stroke="#27272a" stroke-width="1"/>
      <text x="0" y="-3" text-anchor="middle" font-family="monospace" font-size="16" font-weight="bold" fill="#ef4444">Auto</text>
      <text x="0" y="13" text-anchor="middle" font-family="sans-serif" font-size="9" fill="#71717a">Takedown</text>
    </g>
  </g>
  <!-- Tech badges -->
  <g transform="translate(400, 395)" text-anchor="middle">
    <rect x="-120" y="-12" width="72" height="24" rx="12" fill="#1c1c1f" stroke="#ef4444" stroke-width="0.5" opacity="0.5"/>
    <text x="-84" y="4" text-anchor="middle" font-family="sans-serif" font-size="9" fill="#ef4444">Security</text>
    <rect x="-40" y="-12" width="80" height="24" rx="12" fill="#1c1c1f" stroke="#ef4444" stroke-width="0.5" opacity="0.5"/>
    <text x="0" y="4" text-anchor="middle" font-family="sans-serif" font-size="9" fill="#ef4444">Automation</text>
    <rect x="48" y="-12" width="72" height="24" rx="12" fill="#1c1c1f" stroke="#ef4444" stroke-width="0.5" opacity="0.5"/>
    <text x="84" y="4" text-anchor="middle" font-family="sans-serif" font-size="9" fill="#ef4444">Workflow</text>
  </g>
  <!-- Corner accents -->
  <rect x="20" y="20" width="40" height="3" rx="1.5" fill="#ef4444" opacity="0.3"/>
  <rect x="20" y="20" width="3" height="40" rx="1.5" fill="#ef4444" opacity="0.3"/>
  <rect x="740" y="427" width="40" height="3" rx="1.5" fill="#ef4444" opacity="0.3"/>
  <rect x="777" y="390" width="3" height="40" rx="1.5" fill="#ef4444" opacity="0.3"/>
</svg>
